HIERARCHY
ROOT Hips
{
OFFSET -0.1795 -22.3333 2.8219000000000003
	CHANNELS 6 Xposition Yposition Zposition Zrotation Yrotation Xrotation 
	JOINT LeftUpLeg
	{
OFFSET 6.952 -9.140600000000001 -0.6815
		CHANNELS 3 Zrotation Yrotation Xrotation
		JOINT LeftLeg
		{
OFFSET 3.4277 -37.5199 -0.4496
			CHANNELS 3 Zrotation Yrotation Xrotation
			JOINT LeftFoot
			{
OFFSET -1.3596000000000001 -39.7961 -4.3693
				CHANNELS 3 Zrotation Yrotation Xrotation
				JOINT LeftToe
				{
OFFSET 2.6358 -5.5791 11.9288
					CHANNELS 3 Zrotation Yrotation Xrotation
					End Site
					{
OFFSET 0.0 0.0 0.0
					}
				}
			}
		}
	}
	JOINT RightUpLeg
	{
OFFSET -6.7669999999999995 -9.052200000000001 -0.432
		CHANNELS 3 Zrotation Yrotation Xrotation
		JOINT RightLeg
		{
OFFSET -3.8289999999999997 -38.2569 -0.885
			CHANNELS 3 Zrotation Yrotation Xrotation
			JOINT RightFoot
			{
OFFSET 1.5774 -39.8415 -4.2312
				CHANNELS 3 Zrotation Yrotation Xrotation
				JOINT RightToe
				{
OFFSET -2.5372 -4.8144 12.3348
					CHANNELS 3 Zrotation Yrotation Xrotation
					End Site
					{
OFFSET 0.0 0.0 0.0
					}
				}
			}
		}
	}
	JOINT Spine
	{
OFFSET -0.2533 10.8963 -2.6696
		CHANNELS 3 Zrotation Yrotation Xrotation
		JOINT Spine1
		{
OFFSET 0.5487 13.517999999999999 0.1092
			CHANNELS 3 Zrotation Yrotation Xrotation
			JOINT Spine2
			{
OFFSET 0.1457 5.292199999999999 2.5425
				CHANNELS 3 Zrotation Yrotation Xrotation
				JOINT Neck
				{
OFFSET -0.2778 21.387 -4.2857
					CHANNELS 3 Zrotation Yrotation Xrotation
					JOINT Head
					{
OFFSET 0.5152 6.497 5.1349
						CHANNELS 3 Zrotation Yrotation Xrotation
						End Site
						{
OFFSET 0.0 0.0 0.0
						}
					}
				}
				JOINT LeftShoulder
				{
OFFSET 7.8845 12.1749 -3.4090000000000003
					CHANNELS 3 Zrotation Yrotation Xrotation
					JOINT LeftArm
					{
OFFSET 9.0977 3.0469 -0.8867999999999999
						CHANNELS 3 Zrotation Yrotation Xrotation
						JOINT LeftForeArm
						{
OFFSET 25.9612 -1.2772000000000001 -2.7456
							CHANNELS 3 Zrotation Yrotation Xrotation
							JOINT LeftHand
							{
OFFSET 24.9234 0.8986 -0.1171
								CHANNELS 3 Zrotation Yrotation Xrotation
								End Site
								{
OFFSET 0.0 0.0 0.0
								}
							}
						}
					}
				}
				JOINT RightShoulder
				{
OFFSET -8.1759 11.8833 -3.8614999999999995
					CHANNELS 3 Zrotation Yrotation Xrotation
					JOINT RightArm
					{
OFFSET -9.6012 3.2550999999999997 -0.9143
						CHANNELS 3 Zrotation Yrotation Xrotation
						JOINT RightForeArm
						{
OFFSET -25.374200000000002 -1.3329 -2.1401
							CHANNELS 3 Zrotation Yrotation Xrotation
							JOINT RightHand
							{
OFFSET -25.5298 0.7772 -0.5559
								CHANNELS 3 Zrotation Yrotation Xrotation
								End Site
								{
OFFSET 0.0 0.0 0.0
								}
							}
						}
					}
				}
			}
		}
	}
}
MOTION
Frames: 15
Frame Time: 0.050000
-0.066873 0.975543 0.008771 -1.903153 4.830683 8.494413 4.707673 -0.751090 -10.902652 -2.020205 0.127838 3.379342 0.427570 4.520678 8.134954 0.000000 0.000000 0.000000 -1.029597 1.196888 -13.148842 0.451133 0.121924 5.642580 -2.838580 -10.173632 14.809615 0.000000 0.000000 0.000000 -3.887544 0.117301 0.768476 6.965041 -0.750907 -26.950433 -0.668372 -3.457816 30.516584 0.607863 1.554991 -33.113137 0.000000 0.000000 0.000000 -16.836618 8.887040 -5.578370 -60.410024 -0.752079 -9.481903 -22.406044 -35.334462 9.688669 0.000000 0.000000 0.000000 7.936017 0.363997 -0.166760 65.472922 0.625615 -8.811244 11.653971 38.630520 6.246885 0.000000 0.000000 0.000000 
-0.067082 0.974777 0.011250 -1.743433 5.291590 8.599589 4.749183 -0.746195 -10.710159 -2.030336 0.136470 2.878654 0.427732 4.701701 8.500179 0.000000 0.000000 0.000000 -0.818961 1.154982 -12.501006 0.420707 0.105147 4.982044 -2.771199 -10.022116 15.082516 0.000000 0.000000 0.000000 -4.278918 0.132256 0.558415 7.123916 -0.760175 -27.258310 -0.451988 -3.168966 30.606587 0.408808 1.767345 -33.417734 0.000000 0.000000 0.000000 -16.371180 8.993136 -5.684693 -61.071601 -1.249371 -9.346954 -21.076413 -33.572003 8.657741 0.000000 0.000000 0.000000 7.885535 0.162296 -0.185540 65.719943 0.625026 -8.764881 10.709277 37.099412 5.699825 0.000000 0.000000 0.000000 
-0.066695 0.973769 0.014521 -1.568823 5.955648 8.602268 4.607461 -0.747367 -10.449827 -1.970694 0.133500 2.493153 0.179065 4.345750 8.541625 0.000000 0.000000 0.000000 -0.822044 1.104114 -11.974428 0.271524 0.115327 4.654247 -2.813915 -9.956291 14.859335 0.000000 0.000000 0.000000 -4.437786 0.135952 0.352204 6.974745 -0.714841 -27.437007 -0.384943 -3.315548 30.849379 0.231678 1.921232 -33.829534 0.000000 0.000000 0.000000 -16.083321 9.164619 -5.781655 -61.544876 -1.524887 -9.309934 -20.438728 -32.404953 8.109908 0.000000 0.000000 0.000000 7.858092 0.067866 -0.188639 66.065793 0.827286 -8.669063 9.565031 35.809077 5.137432 0.000000 0.000000 0.000000 
-0.065993 0.972555 0.018317 -1.273683 6.649466 8.590956 4.415820 -0.736865 -9.989562 -2.000381 0.144522 1.948980 -0.132789 4.008854 8.890820 0.000000 0.000000 0.000000 -0.999033 1.030499 -11.312211 0.004932 0.138930 4.178365 -2.944417 -10.052473 14.680290 0.000000 0.000000 0.000000 -4.842711 0.144649 0.013804 7.141485 -0.742439 -27.529072 -0.350250 -3.517468 31.133198 -0.368409 2.273155 -34.228533 0.000000 0.000000 0.000000 -16.362768 9.134086 -5.860352 -61.904552 -1.744066 -9.297404 -19.822768 -31.230657 7.591236 0.000000 0.000000 0.000000 7.753114 0.576901 0.073334 66.434041 1.163712 -8.512039 8.268375 34.843068 4.602366 0.000000 0.000000 0.000000 
-0.065130 0.971463 0.022548 -1.232441 7.198306 8.522828 4.443613 -0.710607 -9.477629 -1.961080 0.148063 1.448425 -0.128278 4.016404 8.762586 0.000000 0.000000 0.000000 -0.781809 0.995404 -10.749168 -0.288533 0.168995 3.788752 -3.084546 -10.183494 14.408109 0.000000 0.000000 0.000000 -5.101553 0.146950 -0.182189 7.216408 -0.761815 -27.457397 -0.264449 -3.571878 31.192977 -0.646245 2.458688 -34.299450 0.000000 0.000000 0.000000 -16.694209 8.995039 -5.908134 -61.970026 -1.699871 -9.354790 -19.431146 -30.443118 7.237115 0.000000 0.000000 0.000000 7.821661 1.040331 0.309969 66.561722 1.439898 -8.334477 7.092177 33.733576 4.091731 0.000000 0.000000 0.000000 
-0.064386 0.970140 0.026996 -0.952485 7.791597 8.544591 4.385685 -0.706992 -9.272828 -2.081061 0.161113 1.245324 -0.447615 3.537455 8.808978 0.000000 0.000000 0.000000 -0.856256 0.948853 -10.292776 -0.471747 0.199333 3.928754 -3.208824 -10.240814 13.800165 0.000000 0.000000 0.000000 -5.627084 0.152978 -0.486642 7.520977 -0.810887 -27.681680 -0.331331 -3.567443 31.496855 -0.763232 2.597229 -34.752955 0.000000 0.000000 0.000000 -16.853225 9.194265 -6.125669 -62.163134 -1.473842 -9.549233 -19.629521 -29.810947 7.102219 0.000000 0.000000 0.000000 7.748183 1.243829 0.449748 66.690911 1.634810 -8.207718 6.663982 32.876428 3.872010 0.000000 0.000000 0.000000 
-0.063678 0.969230 0.031253 -0.927786 8.495856 8.409993 4.510351 -0.682344 -8.819394 -2.253544 0.179381 0.956195 -0.594249 3.224080 8.527983 0.000000 0.000000 0.000000 -0.745304 0.903848 -9.708472 -0.629404 0.218813 3.856958 -3.453850 -10.542688 13.375366 0.000000 0.000000 0.000000 -5.961147 0.151637 -0.585231 7.648800 -0.858326 -27.377391 -0.206699 -3.640140 31.376585 -0.975312 2.764613 -34.872026 0.000000 0.000000 0.000000 -17.203184 9.290538 -6.331419 -62.218502 -1.302160 -9.658471 -20.085648 -29.088677 7.007565 0.000000 0.000000 0.000000 7.936451 1.588946 0.643793 66.592330 1.735923 -8.091069 6.983180 32.365396 3.901552 0.000000 0.000000 0.000000 
-0.063032 0.967845 0.034749 -0.807586 9.163794 8.171215 4.478090 -0.689828 -8.849228 -2.115821 0.148665 1.643208 -0.883709 2.590499 8.115037 0.000000 0.000000 0.000000 -0.829223 0.887369 -9.632642 -0.601574 0.242854 4.812560 -3.576418 -10.627412 12.907650 0.000000 0.000000 0.000000 -6.363098 0.158186 -0.055232 7.895194 -0.900661 -27.532645 -0.015092 -3.799724 31.672354 -1.400551 3.018525 -35.062536 0.000000 0.000000 0.000000 -17.610133 9.319998 -6.488791 -61.837163 -0.414106 -10.103043 -21.241950 -29.188786 7.329335 0.000000 0.000000 0.000000 7.837024 2.002835 0.860997 66.536720 1.484534 -8.218137 7.383215 33.185829 4.161404 0.000000 0.000000 0.000000 
-0.062248 0.967069 0.036818 -0.620209 10.017795 8.148072 4.235561 -0.723470 -9.157958 -1.941727 0.112557 2.239655 -1.171094 1.947399 7.678835 0.000000 0.000000 0.000000 -1.309936 0.870720 -9.912159 0.016301 0.164033 6.035562 -3.797626 -10.868992 12.199256 0.000000 0.000000 0.000000 -6.676106 0.168107 0.482795 7.853157 -0.901776 -27.343855 0.296562 -3.880805 31.522060 -1.797592 3.283252 -35.149593 0.000000 0.000000 0.000000 -17.569592 8.977083 -6.405068 -61.915680 0.260936 -10.475821 -22.415554 -28.680588 7.460029 0.000000 0.000000 0.000000 7.688963 2.291386 1.036683 66.890207 1.339100 -8.242230 7.776506 33.299732 4.324205 0.000000 0.000000 0.000000 
-0.061482 0.966264 0.037113 -0.456671 10.550002 8.219349 4.022094 -0.795750 -10.051378 -1.672911 0.042937 3.596692 -1.028954 1.882199 6.941643 0.000000 0.000000 0.000000 -1.547312 0.914878 -10.866869 0.437162 0.110229 7.865230 -3.840275 -10.846973 11.795885 0.000000 0.000000 0.000000 -6.928496 0.189813 1.423597 8.227200 -0.957936 -27.691118 0.221070 -4.367581 31.811539 -2.090917 3.396228 -34.999988 0.000000 0.000000 0.000000 -17.719063 9.042724 -6.438469 -62.048707 1.439129 -11.120219 -23.285533 -29.384218 7.925304 0.000000 0.000000 0.000000 7.167803 3.204815 1.413359 67.356159 1.626463 -8.128473 7.184048 34.074145 4.270544 0.000000 0.000000 0.000000 
-0.060741 0.965557 0.034942 -0.242367 11.170663 8.330978 3.513196 -0.958207 -11.853345 -1.338198 -0.097733 6.248981 -0.954446 1.405178 5.677167 0.000000 0.000000 0.000000 -1.972286 0.984419 -12.719432 0.912052 0.015796 11.172842 -3.685740 -10.301918 9.763058 0.000000 0.000000 0.000000 -6.954776 0.208998 2.584547 8.347052 -1.003168 -27.358458 0.453015 -4.232332 31.915821 -1.922385 3.410366 -35.617193 0.000000 0.000000 0.000000 -16.715911 8.654890 -6.138020 -62.618763 2.147295 -11.650436 -24.548094 -30.315087 8.517237 0.000000 0.000000 0.000000 6.268128 3.367494 1.499779 67.700069 1.992138 -7.807084 7.088555 34.704765 4.382683 0.000000 0.000000 0.000000 
-0.060282 0.962841 0.030562 -0.165112 11.433190 8.271626 3.108033 -1.236415 -14.757132 -1.241413 -0.371609 11.568170 -0.147189 1.529280 3.053796 0.000000 0.000000 0.000000 -2.698307 1.062684 -16.119111 1.746851 -0.270483 16.567587 -3.789428 -10.403515 8.747009 0.000000 0.000000 0.000000 -6.748286 0.227706 5.302194 8.533484 -1.030858 -27.499992 0.685202 -4.034202 31.978233 -2.460120 3.723521 -36.281041 0.000000 0.000000 0.000000 -16.122265 8.935125 -6.241345 -62.920455 3.091036 -12.230809 -25.811873 -31.585521 9.255732 0.000000 0.000000 0.000000 5.071873 3.900424 1.695992 67.496672 1.744816 -7.826081 8.037192 37.174751 5.137152 0.000000 0.000000 0.000000 
-0.060023 0.953049 0.024433 -0.063319 11.734456 8.301726 3.105469 -1.744401 -19.808682 -2.139595 -0.668411 19.595699 1.332685 2.832065 -0.078347 0.000000 0.000000 0.000000 -3.524664 1.068903 -20.544957 2.693715 -0.849099 23.921562 -3.774306 -10.079564 5.513068 0.000000 0.000000 0.000000 -6.170299 0.188006 8.244495 8.503295 -1.037070 -27.142466 0.846759 -3.182005 32.152670 -2.975527 4.111635 -38.306294 0.000000 0.000000 0.000000 -15.357415 8.281953 -5.943736 -63.040308 2.821972 -12.195540 -25.625798 -32.568875 9.379716 0.000000 0.000000 0.000000 4.047737 4.277808 1.846282 67.526534 2.664857 -7.049605 6.248239 38.220435 4.793730 0.000000 0.000000 0.000000 
-0.060051 0.932997 0.017317 -0.071784 12.008053 8.203690 3.365726 -2.428567 -26.043923 -3.938500 -0.854450 30.170217 3.017827 4.091946 -4.771103 0.000000 0.000000 0.000000 -4.422935 0.933264 -26.697757 3.631580 -1.895972 34.165959 -4.067796 -10.420652 2.413211 0.000000 0.000000 0.000000 -5.638491 0.066454 12.658303 8.619575 -1.036835 -27.348772 1.397481 -2.483482 31.424613 -3.596838 4.458734 -39.682813 0.000000 0.000000 0.000000 -16.086576 7.647386 -5.955076 -62.239824 3.971320 -12.543959 -25.365099 -33.373165 9.389121 0.000000 0.000000 0.000000 3.319602 4.450326 1.893095 66.707906 1.901641 -7.197671 6.060138 40.334425 5.105274 0.000000 0.000000 0.000000 
-0.060059 0.897919 0.009942 -0.364226 11.998394 8.490091 4.733075 -3.150720 -34.103743 -6.945860 -0.300649 42.599714 5.146607 7.908751 -8.357998 0.000000 0.000000 0.000000 -5.216141 0.632034 -33.879138 4.110352 -3.099566 45.710047 -4.510919 -10.820111 -2.749313 0.000000 0.000000 0.000000 -5.082281 -0.139342 16.963916 9.583691 -1.224109 -27.379393 1.448606 -1.010260 30.554449 -3.294650 4.461838 -41.606193 0.000000 0.000000 0.000000 -16.583982 7.020705 -6.048971 -61.501718 4.632536 -12.625072 -24.437984 -33.496230 8.910703 0.000000 0.000000 0.000000 3.816706 4.608089 2.058247 65.202945 2.031771 -6.788826 3.776886 41.547726 4.527281 0.000000 0.000000 0.000000 
